<svg id="svg1" width="52.236mm" height="59.214mm" version="1.1" viewBox="0 0 52.236 59.214" xml:space="preserve" xmlns="http://www.w3.org/2000/svg"><g id="layer1" transform="translate(-90.12 -76.38)"><path id="path1" d="m120.72 135.59c-4.9812-0.17826-9.869-1.3578-14.861-1.2429-4.0557 1e-3 -8.5153-0.49378-11.543-3.4886-2.8194-1.1062-4.1169-3.7417-3.7987-6.6569-0.4936-8.9032-0.4687-17.834-0.24503-26.744 0.24912-4.939 0.44558-9.8883 0.65142-14.824 1.1514-4.2741 6.1535-5.8534 10.151-5.5742 5.567 0.5307 11.163 0.28581 16.706-0.39709 4.2753-0.49306 8.6275-0.39756 12.811 0.6648 3.0886 0.31948 6.2765-0.23014 9.2766 0.77359 2.5356 0.73119 0.84091 4.6711 2.0282 6.7164 0.33302 7.0454 0.45705 14.121 0.44637 21.181 0.16092 5.9268-1.1687 11.768-1.0297 17.692-0.17822 3.1343-0.13216 6.5834-2.1398 9.1996-2.6119 1.0165-5.4053 1.8453-8.076 2.4725-3.457 0.14255-6.9173 0.16624-10.376 0.22769zm5.3873-3.1803c3.0183 1.048 5.3088-2.9345 7.8086-1.5408 3.5337-0.43393 3.3109-4.8639 3.4404-7.5655 0.13726-4.298 0.58145-8.5819 0.90949-12.859 0.056-8.5961 0.37461-17.22-0.3079-25.796 0.17321-3.7073-3.0352-4.8114-6.0507-4.4595-3.3712-0.65189-6.7983-1.3929-10.238-0.77033-4.577 0.48353-9.1691 1.4948-13.78 0.79487-3.7545-0.09127-7.9701-0.9116-11.185 1.575-2.4072 1.4239-1.8547 4.27-1.8399 6.5994 0.14582 12.654-0.05132 25.309 0.0996 37.962 1.5513 2.2891 3.4912 5.039 6.5994 4.9158 4.5503 0.33035 9.1214 0.42265 13.635 1.131 3.6286 0.3049 7.2778 0.23061 10.909 0.0137zm-11.427-14.054c-3.0536-0.53917-6.542-0.0692-8.9713-2.4225-3.893-3.0581-4.0791-8.7908-2.3923-13.083 1.3194-3.7094 3.6572-7.2113 7.2733-9.0046 3.6975-2.3238 8.2853-2.1 12.465-1.8387 3.8325 1.0238 5.0843 5.4834 5.209 8.9938 0.16007 4.2259 0.52326 8.8446-1.6448 12.651-1.8422 2.964-5.0389 5.5199-8.7124 5.1154-1.086-0.0268-2.1674-0.17306-3.2267-0.41139zm4.9975-3.0061c3.3176-1.9057 5.1324-5.6539 5.056-9.4141 0.28729-3.6675 0.0939-7.4861-1.4082-10.896-2.9768-2.1823-6.932-0.92284-10.059 0.21242-4.63 2.6432-7.6696 7.7538-8.3481 12.969-0.59267 4.1807 3.4199 5.4203 6.5488 6.3462 2.5343 1.4125 5.4697 2.0184 8.2101 0.7824zm8.8931-24.114c-2.0202-0.32013-1.2047-2.9329-0.7323-3.3871-1.7209-3.1785 1.8359-6.178 4.7851-4.1674 2.8646 1.3482 3.8914 6.7305 0.15616 7.6593-1.35 0.4555-2.8944 0.48521-4.209-0.10475z"/></g></svg>
