<?xml version="1.0" encoding="UTF-8"?>
<svg width="60" height="60" viewBox="0 0 15.875 15.875" xmlns="http://www.w3.org/2000/svg">
    <path d="m8.7793 15.59c-2.1548-0.10068-4.2916-0.35016-5.8877-1.6123-1.4038-1.1101-2.7286-5.4168-2.8105-6.5694-0.05233-0.73695-0.0204-1.494 0.25564-2.2016 1.1783-3.2914 5.4745-4.7408 8.7592-4.9146 1.2019-0.03369 2.4806 0.04208 3.5621 0.56746 0.74718 0.36298 1.3289 1.0081 1.8294 1.6922 0.54407 0.73629 0.89479 1.6158 1.0406 2.516 0.15898 1.1986 0.49626 2.4629 0.10404 3.6537-0.40616 1.1565-1.5224 1.7849-2.5527 2.3481-0.80156 0.20973-1.6376 0.40765-2.4727 0.34317-1.3525-0.1365-2.734-0.16321-4.0432-0.55561-0.39198 0.53074 0.48011 1.3489 0.87275 1.8053 0.85956 0.72045 3.2008 0.48698 5.1077 0.13838 0.71154 0.26103 0.61638 1.8052 0.61638 1.8052-0.33123 0.5369-0.59828 0.59192-1.2882 0.73505-1.0046 0.23768-2.0666 0.22004-3.0929 0.24892zm3.3688-7.1545c1.1159 0.20823 0.59007-1.2237 0.64849-1.861-0.05925-0.75872 0.09048-1.5762-0.33077-2.2556-0.29157-0.67176-0.93629-1.2966-1.7273-1.0979-0.88648-0.0053-1.4384 0.8405-1.6938 1.5885 0.10499 0.46661-0.61855 1.1314-0.59971 0.38178 0.15154-0.43339 0.15865-0.83756-0.07025-1.2452-0.1231-0.70361-0.89201-1.2217-1.595-1.1986-0.73271 0.13224-1.2869 0.5358-1.8259 1.0308-0.53406 0.48434-0.49169 1.2718-0.65139 1.9228-0.0253 0.65152-0.1929 1.4026-0.14355 2.0085 0.48007 0.21668 1.3403 0.31165 1.1742-0.46735 0.19143-0.77571 0.52264-1.5694 1.2107-2.0333 0.63269-0.24386 1.16 0.13589 1.2757 0.76331 0.7142 0.32474 1.5192 0.05593 1.8148-0.67332 0.37401-0.17404 0.86905-0.49716 1.2745-0.26042 0.35244 0.1683 0.67941 0.49843 0.58058 0.91349 0.0023 0.82302-0.03382 1.6546-0.01637 2.4705 0.15215 0.19311 0.47984 0.04491 0.67504 0.01292z"/>
</svg>
